<svg width="100" height="23" viewBox="0 0 100 23" fill="none" xmlns="http://www.w3.org/2000/svg">
<rect x="61" width="39" height="23" rx="3" fill="#4A90E2"/>
<path d="M4.242 12.17C4.62933 12.17 4.97 12.1187 5.264 12.016C5.56267 11.9133 5.81233 11.771 6.013 11.589C6.21833 11.4023 6.37233 11.1807 6.475 10.924C6.57767 10.6673 6.629 10.385 6.629 10.077C6.629 9.43767 6.43067 8.93833 6.034 8.579C5.642 8.21967 5.04467 8.04 4.242 8.04H2.632V12.17H4.242ZM4.242 6.969C4.87667 6.969 5.42733 7.04367 5.894 7.193C6.36533 7.33767 6.755 7.54533 7.063 7.816C7.371 8.08667 7.59967 8.41333 7.749 8.796C7.903 9.17867 7.98 9.60567 7.98 10.077C7.98 10.5437 7.89833 10.9707 7.735 11.358C7.57167 11.7453 7.33133 12.079 7.014 12.359C6.70133 12.639 6.31167 12.8583 5.845 13.017C5.383 13.171 4.84867 13.248 4.242 13.248H2.632V17H1.281V6.969H4.242ZM10.4415 11.33C10.6655 10.8447 10.9408 10.4667 11.2675 10.196C11.5942 9.92067 11.9932 9.783 12.4645 9.783C12.6138 9.783 12.7562 9.79933 12.8915 9.832C13.0315 9.86467 13.1552 9.916 13.2625 9.986L13.1715 10.917C13.1435 11.0337 13.0735 11.092 12.9615 11.092C12.8962 11.092 12.8005 11.078 12.6745 11.05C12.5485 11.022 12.4062 11.008 12.2475 11.008C12.0235 11.008 11.8228 11.0407 11.6455 11.106C11.4728 11.1713 11.3165 11.2693 11.1765 11.4C11.0412 11.526 10.9175 11.6847 10.8055 11.876C10.6982 12.0627 10.6002 12.2773 10.5115 12.52V17H9.25848V9.909H9.97248C10.1078 9.909 10.2012 9.93467 10.2525 9.986C10.3038 10.0373 10.3388 10.126 10.3575 10.252L10.4415 11.33ZM18.817 12.681C18.817 12.3917 18.775 12.128 18.691 11.89C18.6117 11.6473 18.4927 11.4397 18.334 11.267C18.18 11.0897 17.991 10.9543 17.767 10.861C17.543 10.763 17.2887 10.714 17.004 10.714C16.4067 10.714 15.933 10.889 15.583 11.239C15.2377 11.5843 15.023 12.065 14.939 12.681H18.817ZM19.825 16.006C19.671 16.1927 19.4867 16.356 19.272 16.496C19.0573 16.6313 18.8263 16.7433 18.579 16.832C18.3363 16.9207 18.0843 16.986 17.823 17.028C17.5617 17.0747 17.3027 17.098 17.046 17.098C16.556 17.098 16.1033 17.0163 15.688 16.853C15.2773 16.685 14.9203 16.4423 14.617 16.125C14.3183 15.803 14.085 15.4063 13.917 14.935C13.749 14.4637 13.665 13.9223 13.665 13.311C13.665 12.8163 13.7397 12.3543 13.889 11.925C14.043 11.4957 14.2623 11.1247 14.547 10.812C14.8317 10.4947 15.1793 10.2473 15.59 10.07C16.0007 9.888 16.4627 9.797 16.976 9.797C17.4007 9.797 17.7927 9.86933 18.152 10.014C18.516 10.154 18.8287 10.3593 19.09 10.63C19.356 10.896 19.5637 11.2273 19.713 11.624C19.8623 12.016 19.937 12.464 19.937 12.968C19.937 13.164 19.916 13.2947 19.874 13.36C19.832 13.4253 19.7527 13.458 19.636 13.458H14.897C14.911 13.906 14.9717 14.2957 15.079 14.627C15.191 14.9583 15.345 15.236 15.541 15.46C15.737 15.6793 15.9703 15.845 16.241 15.957C16.5117 16.0643 16.815 16.118 17.151 16.118C17.4637 16.118 17.732 16.083 17.956 16.013C18.1847 15.9383 18.3807 15.859 18.544 15.775C18.7073 15.691 18.8427 15.614 18.95 15.544C19.062 15.4693 19.1577 15.432 19.237 15.432C19.3397 15.432 19.419 15.4717 19.475 15.551L19.825 16.006ZM21.4675 17V9.909H22.2165C22.3938 9.909 22.5035 9.99533 22.5455 10.168L22.6365 10.896C22.8978 10.574 23.1918 10.3103 23.5185 10.105C23.8451 9.89967 24.2231 9.797 24.6525 9.797C25.1285 9.797 25.5135 9.93 25.8075 10.196C26.1061 10.462 26.3208 10.8213 26.4515 11.274C26.5541 11.0173 26.6848 10.7957 26.8435 10.609C27.0068 10.4223 27.1888 10.2683 27.3895 10.147C27.5901 10.0257 27.8025 9.937 28.0265 9.881C28.2551 9.825 28.4861 9.797 28.7195 9.797C29.0928 9.797 29.4241 9.85767 29.7135 9.979C30.0075 10.0957 30.2548 10.2683 30.4555 10.497C30.6608 10.7257 30.8171 11.008 30.9245 11.344C31.0318 11.6753 31.0855 12.0557 31.0855 12.485V17H29.8325V12.485C29.8325 11.9297 29.7111 11.5097 29.4685 11.225C29.2258 10.9357 28.8758 10.791 28.4185 10.791C28.2131 10.791 28.0171 10.8283 27.8305 10.903C27.6485 10.973 27.4875 11.078 27.3475 11.218C27.2075 11.358 27.0955 11.5353 27.0115 11.75C26.9321 11.96 26.8925 12.205 26.8925 12.485V17H25.6395V12.485C25.6395 11.9157 25.5251 11.491 25.2965 11.211C25.0678 10.931 24.7341 10.791 24.2955 10.791C23.9875 10.791 23.7028 10.875 23.4415 11.043C23.1801 11.2063 22.9398 11.4303 22.7205 11.715V17H21.4675ZM34.2952 9.909V17H33.0492V9.909H34.2952ZM34.5612 7.683C34.5612 7.80433 34.5355 7.91867 34.4842 8.026C34.4375 8.12867 34.3722 8.222 34.2882 8.306C34.2089 8.38533 34.1132 8.44833 34.0012 8.495C33.8939 8.54167 33.7795 8.565 33.6582 8.565C33.5369 8.565 33.4225 8.54167 33.3152 8.495C33.2125 8.44833 33.1215 8.38533 33.0422 8.306C32.9629 8.222 32.8999 8.12867 32.8532 8.026C32.8065 7.91867 32.7832 7.80433 32.7832 7.683C32.7832 7.56167 32.8065 7.44733 32.8532 7.34C32.8999 7.228 32.9629 7.13233 33.0422 7.053C33.1215 6.969 33.2125 6.90367 33.3152 6.857C33.4225 6.81033 33.5369 6.787 33.6582 6.787C33.7795 6.787 33.8939 6.81033 34.0012 6.857C34.1132 6.90367 34.2089 6.969 34.2882 7.053C34.3722 7.13233 34.4375 7.228 34.4842 7.34C34.5355 7.44733 34.5612 7.56167 34.5612 7.683ZM42.1735 9.909V17H41.4315C41.2541 17 41.1421 16.9137 41.0955 16.741L40.9975 15.978C40.6895 16.3187 40.3441 16.594 39.9615 16.804C39.5788 17.0093 39.1401 17.112 38.6455 17.112C38.2581 17.112 37.9151 17.049 37.6165 16.923C37.3225 16.7923 37.0751 16.6103 36.8745 16.377C36.6738 16.1437 36.5221 15.8613 36.4195 15.53C36.3215 15.1987 36.2725 14.8323 36.2725 14.431V9.909H37.5185V14.431C37.5185 14.9677 37.6398 15.383 37.8825 15.677C38.1298 15.971 38.5055 16.118 39.0095 16.118C39.3781 16.118 39.7211 16.0317 40.0385 15.859C40.3605 15.6817 40.6568 15.439 40.9275 15.131V9.909H42.1735ZM44.1491 17V9.909H44.8981C45.0754 9.909 45.1851 9.99533 45.2271 10.168L45.3181 10.896C45.5794 10.574 45.8734 10.3103 46.2001 10.105C46.5268 9.89967 46.9048 9.797 47.3341 9.797C47.8101 9.797 48.1951 9.93 48.4891 10.196C48.7878 10.462 49.0024 10.8213 49.1331 11.274C49.2358 11.0173 49.3664 10.7957 49.5251 10.609C49.6884 10.4223 49.8704 10.2683 50.0711 10.147C50.2718 10.0257 50.4841 9.937 50.7081 9.881C50.9368 9.825 51.1678 9.797 51.4011 9.797C51.7744 9.797 52.1058 9.85767 52.3951 9.979C52.6891 10.0957 52.9364 10.2683 53.1371 10.497C53.3424 10.7257 53.4988 11.008 53.6061 11.344C53.7134 11.6753 53.7671 12.0557 53.7671 12.485V17H52.5141V12.485C52.5141 11.9297 52.3928 11.5097 52.1501 11.225C51.9074 10.9357 51.5574 10.791 51.1001 10.791C50.8948 10.791 50.6988 10.8283 50.5121 10.903C50.3301 10.973 50.1691 11.078 50.0291 11.218C49.8891 11.358 49.7771 11.5353 49.6931 11.75C49.6138 11.96 49.5741 12.205 49.5741 12.485V17H48.3211V12.485C48.3211 11.9157 48.2068 11.491 47.9781 11.211C47.7494 10.931 47.4158 10.791 46.9771 10.791C46.6691 10.791 46.3844 10.875 46.1231 11.043C45.8618 11.2063 45.6214 11.4303 45.4021 11.715V17H44.1491Z" fill="white"/>
<path d="M74.323 14.928C74.3977 14.928 74.463 14.9583 74.519 15.019L75.058 15.6C74.6473 16.076 74.148 16.447 73.56 16.713C72.9767 16.979 72.2697 17.112 71.439 17.112C70.7203 17.112 70.067 16.9883 69.479 16.741C68.891 16.489 68.3893 16.139 67.974 15.691C67.5587 15.2383 67.2367 14.697 67.008 14.067C66.7793 13.437 66.665 12.744 66.665 11.988C66.665 11.232 66.784 10.539 67.022 9.909C67.26 9.279 67.5937 8.73767 68.023 8.285C68.457 7.83233 68.975 7.48233 69.577 7.235C70.179 6.983 70.844 6.857 71.572 6.857C72.286 6.857 72.916 6.97133 73.462 7.2C74.008 7.42867 74.4887 7.739 74.904 8.131L74.456 8.754C74.428 8.80067 74.3907 8.84033 74.344 8.873C74.302 8.901 74.2437 8.915 74.169 8.915C74.085 8.915 73.9823 8.87067 73.861 8.782C73.7397 8.68867 73.581 8.586 73.385 8.474C73.189 8.362 72.944 8.26167 72.65 8.173C72.356 8.07967 71.9943 8.033 71.565 8.033C71.047 8.033 70.5733 8.124 70.144 8.306C69.7147 8.48333 69.3437 8.74233 69.031 9.083C68.723 9.42367 68.4827 9.839 68.31 10.329C68.1373 10.819 68.051 11.372 68.051 11.988C68.051 12.6133 68.1397 13.171 68.317 13.661C68.499 14.151 68.744 14.5663 69.052 14.907C69.3647 15.243 69.731 15.4997 70.151 15.677C70.5757 15.8543 71.033 15.943 71.523 15.943C71.8217 15.943 72.09 15.9267 72.328 15.894C72.5707 15.8567 72.7923 15.8007 72.993 15.726C73.1983 15.6513 73.3873 15.558 73.56 15.446C73.7373 15.3293 73.9123 15.1917 74.085 15.033C74.1643 14.963 74.2437 14.928 74.323 14.928ZM81.9596 13.276L80.3846 9.195C80.3379 9.07367 80.2889 8.93367 80.2376 8.775C80.1862 8.61167 80.1372 8.439 80.0906 8.257C79.9926 8.635 79.8922 8.95 79.7896 9.202L78.2146 13.276H81.9596ZM84.7876 17H83.7376C83.6162 17 83.5182 16.9697 83.4436 16.909C83.3689 16.8483 83.3129 16.7713 83.2756 16.678L82.3376 14.256H77.8366L76.8986 16.678C76.8706 16.762 76.8169 16.8367 76.7376 16.902C76.6582 16.9673 76.5602 17 76.4436 17H75.3936L79.4046 6.969H80.7766L84.7876 17ZM88.8862 11.827C89.2782 11.827 89.6235 11.7803 89.9222 11.687C90.2255 11.589 90.4775 11.4537 90.6782 11.281C90.8835 11.1037 91.0375 10.8937 91.1402 10.651C91.2428 10.4083 91.2942 10.14 91.2942 9.846C91.2942 9.24867 91.0982 8.79833 90.7062 8.495C90.3142 8.19167 89.7262 8.04 88.9422 8.04H87.4582V11.827H88.8862ZM93.5202 17H92.3162C92.0688 17 91.8868 16.9043 91.7702 16.713L89.1662 13.129C89.0868 13.017 89.0005 12.9377 88.9072 12.891C88.8185 12.8397 88.6785 12.814 88.4872 12.814H87.4582V17H86.1072V6.969H88.9422C89.5768 6.969 90.1252 7.03433 90.5872 7.165C91.0492 7.291 91.4295 7.47533 91.7282 7.718C92.0315 7.96067 92.2555 8.25467 92.4002 8.6C92.5448 8.94067 92.6172 9.32333 92.6172 9.748C92.6172 10.1027 92.5612 10.434 92.4492 10.742C92.3372 11.05 92.1738 11.3277 91.9592 11.575C91.7492 11.8177 91.4902 12.0253 91.1822 12.198C90.8788 12.3707 90.5335 12.5013 90.1462 12.59C90.3188 12.688 90.4682 12.8303 90.5942 13.017L93.5202 17Z" fill="white"/>
</svg>
